<?xml version="1.0" encoding="UTF-8" standalone="no"?>
<!-- Created with Inkscape (http://www.inkscape.org/) -->

<svg
   width="512"
   height="512"
   viewBox="0 0 135.46666 135.46667"
   version="1.1"
   id="svg5"
   inkscape:version="1.1 (c68e22c387, 2021-05-23)"
   sodipodi:docname="icon.svg"
   xmlns:inkscape="http://www.inkscape.org/namespaces/inkscape"
   xmlns:sodipodi="http://sodipodi.sourceforge.net/DTD/sodipodi-0.dtd"
   xmlns="http://www.w3.org/2000/svg"
   xmlns:svg="http://www.w3.org/2000/svg">
  <sodipodi:namedview
     id="namedview7"
     pagecolor="#ffffff"
     bordercolor="#666666"
     borderopacity="1.0"
     inkscape:pageshadow="2"
     inkscape:pageopacity="0.0"
     inkscape:pagecheckerboard="true"
     inkscape:document-units="mm"
     showgrid="false"
     units="px"
     inkscape:zoom="1.5554293"
     inkscape:cx="196.4088"
     inkscape:cy="289.63065"
     inkscape:window-width="2560"
     inkscape:window-height="1377"
     inkscape:window-x="-8"
     inkscape:window-y="613"
     inkscape:window-maximized="1"
     inkscape:current-layer="layer1" />
  <defs
     id="defs2" />
  <g
     inkscape:label="Layer 1"
     inkscape:groupmode="layer"
     id="layer1">
    <path
       id="path991"
       style="fill:#008000;stroke:#000000;stroke-width:0.999999px;stroke-linecap:butt;stroke-linejoin:miter;stroke-opacity:1"
       d="M 310.52539 57.21875 C 183.88144 56.722107 186.53345 160.14051 194.29297 207.24805 C 194.6481 207.85359 243.59275 291.31464 194.43164 208.12305 C 194.45567 208.26575 194.47784 208.4248 194.50195 208.56641 L 194.38672 208.04492 C 194.25298 207.81861 194.29339 207.88894 194.1582 207.66016 C 144.01128 122.79613 85.507812 287.38086 85.507812 287.38086 C 85.507812 287.38086 87.435081 307.95379 103.50781 306.66797 C 119.58054 305.38215 127.93945 286.09375 127.93945 286.09375 L 157.51367 286.09375 C 157.51367 286.09375 166.51321 306.0244 182.58594 307.95312 C 198.65867 309.88186 202.51562 286.09375 202.51562 286.09375 L 241.0918 289.95117 C 241.0918 289.95117 234.66191 307.31117 257.80664 309.88281 C 277.94264 312.12014 282.01063 298.80549 282.73047 295.30078 L 273.87891 345.24219 L 237.87695 322.74023 C 237.87695 322.74023 239.16132 304.73828 217.94531 304.73828 C 196.7293 304.73828 197.37305 323.38281 197.37305 323.38281 L 160.02344 322.13867 C 158.3875 304.16734 140.79688 306.66797 140.79688 306.66797 C 124.72415 306.66797 120.22461 325.3125 120.22461 325.3125 L 87.435547 325.95508 C 87.435547 325.95508 63.648573 289.30892 48.21875 326.59766 C 32.788926 363.8864 235.30548 514.32769 404.39062 416.60547 C 573.4758 318.88327 474.46726 57.861659 310.52539 57.21875 z M 194.38672 208.04492 C 194.41365 208.09049 194.40477 208.07758 194.43164 208.12305 C 194.38421 207.84142 194.34005 207.53386 194.29297 207.24805 C 194.29169 207.24586 194.1582 207.01758 194.1582 207.01758 L 194.38672 208.04492 z "
       transform="scale(0.26458333)" />
    <ellipse
       style="fill:#ffffff;stroke:#000000;stroke-width:0.264583"
       id="path1177"
       cx="104.6134"
       cy="49.414951"
       rx="16.5"
       ry="13.693298" />
    <ellipse
       style="fill:#008000;stroke:#000000;stroke-width:0.264583"
       id="path1181"
       cx="106.90979"
       cy="50.945877"
       rx="13.18299"
       ry="9.9510307" />
    <ellipse
       style="fill:#ffffff;stroke:#000000;stroke-width:0.264583"
       id="path1185"
       cx="66.510307"
       cy="48.989689"
       rx="10.376288"
       ry="10.036083" />
    <ellipse
       style="fill:#008000;stroke:#000000;stroke-width:0.264583"
       id="path1187"
       cx="71.528351"
       cy="50.945877"
       rx="4.8479381"
       ry="5.1881442" />
    <path
       style="fill:#008000;stroke:#000000;stroke-width:0.264583px;stroke-linecap:butt;stroke-linejoin:miter;stroke-opacity:1"
       d="m 54.432988,28.237113 -8.164947,-8.335051 c 0,0 -12.757731,0 -8.164949,-2.891753 4.592783,-2.891753 2.891753,0.680412 2.891753,0.680412 0,0 6.974226,-0.680412 5.4433,-3.061855 -1.53093,-2.381443 -1.02062,-1.530928 0.170103,-2.21134 1.19072,-0.680413 4.932989,-1.190722 3.231957,5.273195 -1.70103,6.463918 6.804125,7.314433 6.804125,7.314433 l -0.170103,-0.170103"
       id="path1774" />
    <path
       id="path1776"
       style="fill:#008000;stroke:#000000;stroke-width:0.999999px;stroke-linecap:butt;stroke-linejoin:miter;stroke-opacity:1"
       d="M 440.05469 49.251953 C 433.93633 49.165835 447.46484 75.220703 447.46484 75.220703 L 424.32031 104.15039 L 433.96289 113.79492 L 459.03711 85.507812 C 459.03711 85.507812 487.96731 72.006553 468.03711 66.863281 C 463.46433 63.953324 465.34129 65.883154 465.32812 69.173828 L 457.54492 75.8125 L 457.54297 75.8125 C 452.34736 73.275983 448.10742 61.71875 448.10742 61.71875 C 448.10742 61.71875 457.10854 59.789792 443.60742 50.789062 C 442.02526 49.73429 440.86686 49.263385 440.05469 49.251953 z "
       transform="scale(0.26458333)" />
  </g>
</svg>
